# xmcd
#
# Track frame offsets: 
#        150
#        12752
#        30497
#        47312
#        65252
#        78887
#        94352
#        109447
#        126925
#        146865
#        162700
#
# Disc length: 2422 seconds
#
# Revision: 5
# Processed by: cddbd v1.5.2PL0 Copyright (c) Steve Scherf et al.
# Submitted via: ExactAudioCopy v0.99pb3
#
DISCID=9109740b
DTITLE=James Iha - Let It Come Down
DYEAR=1998
DGENRE=Alternative
TTITLE0=Be Strong Now
TTITLE1=Sound Of Love
TTITLE2=Beauty
TTITLE3=See The Sun
TTITLE4=Country Girl
TTITLE5=Jealousy
TTITLE6=Lover, Lover
TTITLE7=Silver String
TTITLE8=Winter
TTITLE9=One And Two
TTITLE10=No One's Gonna Hurt You
EXTD=
EXTT0=
EXTT1=
EXTT2=
EXTT3=
EXTT4=
EXTT5=
EXTT6=
EXTT7=
EXTT8=
EXTT9=
EXTT10=
PLAYORDER=
